<svg xmlns="http://www.w3.org/2000/svg" width="25.75" height="25.75" viewBox="0 0 25.75 25.75">
  <metadata><?xpacket begin="﻿" id="W5M0MpCehiHzreSzNTczkc9d"?>
<x:xmpmeta xmlns:x="adobe:ns:meta/" x:xmptk="Adobe XMP Core 5.6-c138 79.159824, 2016/09/14-01:09:01        ">
   <rdf:RDF xmlns:rdf="http://www.w3.org/1999/02/22-rdf-syntax-ns#">
      <rdf:Description rdf:about=""/>
   </rdf:RDF>
</x:xmpmeta>
                                                                                                    
                                                                                                    
                                                                                                    
                                                                                                    
                                                                                                    
                                                                                                    
                                                                                                    
                                                                                                    
                                                                                                    
                                                                                                    
                                                                                                    
                                                                                                    
                                                                                                    
                                                                                                    
                                                                                                    
                                                                                                    
                                                                                                    
                                                                                                    
                                                                                                    
                                                                                                    
                           
<?xpacket end="w"?></metadata>
<defs>
    <style>
      .cls-1 {
        fill: #dedede;
        fill-rule: evenodd;
      }
    </style>
  </defs>
  <path class="cls-1" d="M2985.08,2605.52a11.7,11.7,0,0,0-16.56,16.52,11.607,11.607,0,0,0,8.28,3.42,11.728,11.728,0,0,0,7.63-2.81l5.24,5.23,1.21-1.21-5.24-5.28A11.661,11.661,0,0,0,2985.08,2605.52Zm-15.35,15.31a9.91,9.91,0,0,1,0-14.06,10.007,10.007,0,0,1,14.13-.04,9.91,9.91,0,0,1,0,14.06A10.05,10.05,0,0,1,2969.73,2620.83Zm8.08-12.1h-2.03v4.04h-4.04v2.02h4.04v4.04h2.03v-4.04h4.04v-2.02h-4.04v-4.04Z" transform="translate(-2965.13 -2602.13)"/>
</svg>
